<?xml version="1.0" encoding="UTF-8" standalone="no"?>
<svg width="26px" height="26px" viewBox="0 0 26 26" version="1.1" xmlns="http://www.w3.org/2000/svg" xmlns:xlink="http://www.w3.org/1999/xlink">
    <!-- Generator: Sketch 41.2 (35397) - http://www.bohemiancoding.com/sketch -->
    <title>Shape</title>
    <desc>Created with Sketch.</desc>
    <defs></defs>
    <g id="Page-1" stroke="none" stroke-width="1" fill="none" fill-rule="evenodd">
        <g id="Desktop-Landscape-Copy" transform="translate(-483.000000, -187.000000)" fill="#FFFFFF">
            <path d="M508.037037,199.097222 L496.902778,199.097222 L496.902778,187.962963 C496.902778,187.431227 496.531736,187 496,187 C495.468264,187 495.097222,187.431227 495.097222,187.962963 L495.097222,199.097222 L483.962963,199.097222 C483.431227,199.097222 483,199.468264 483,200 C483,200.531736 483.431227,200.902778 483.962963,200.902778 L495.097222,200.902778 L495.097222,212.037037 C495.097222,212.568773 495.468264,213 496,213 C496.531736,213 496.902778,212.568773 496.902778,212.037037 L496.902778,200.902778 L508.037037,200.902778 C508.568773,200.902778 509,200.531736 509,200 C509,199.468264 508.568773,199.097222 508.037037,199.097222 Z" id="Shape"></path>
        </g>
    </g>
</svg>