<?xml version="1.0" encoding="UTF-8" standalone="no"?>
<svg width="26px" height="26px" viewBox="0 0 26 26" version="1.1" xmlns="http://www.w3.org/2000/svg" xmlns:xlink="http://www.w3.org/1999/xlink">
    <!-- Generator: Sketch 41.2 (35397) - http://www.bohemiancoding.com/sketch -->
    <title>Shape</title>
    <desc>Created with Sketch.</desc>
    <defs></defs>
    <g id="Page-1" stroke="none" stroke-width="1" fill="none" fill-rule="evenodd">
        <g id="Desktop-Landscape-Copy" transform="translate(-523.000000, -187.000000)" fill="#3B3B39">
            <path d="M548.037037,199.097222 L536.902778,199.097222 L536.902778,187.962963 C536.902778,187.431227 536.531736,187 536,187 C535.468264,187 535.097222,187.431227 535.097222,187.962963 L535.097222,199.097222 L523.962963,199.097222 C523.431227,199.097222 523,199.468264 523,200 C523,200.531736 523.431227,200.902778 523.962963,200.902778 L535.097222,200.902778 L535.097222,212.037037 C535.097222,212.568773 535.468264,213 536,213 C536.531736,213 536.902778,212.568773 536.902778,212.037037 L536.902778,200.902778 L548.037037,200.902778 C548.568773,200.902778 549,200.531736 549,200 C549,199.468264 548.568773,199.097222 548.037037,199.097222 Z" id="Shape"></path>
        </g>
    </g>
</svg>