<?xml version="1.0" encoding="UTF-8" standalone="no"?>
<svg width="28px" height="30px" viewBox="0 0 28 30" version="1.1" xmlns="http://www.w3.org/2000/svg" xmlns:xlink="http://www.w3.org/1999/xlink">
    <!-- Generator: Sketch 41.2 (35397) - http://www.bohemiancoding.com/sketch -->
    <title>Group 4</title>
    <desc>Created with Sketch.</desc>
    <defs></defs>
    <g id="Page-1" stroke="none" stroke-width="1" fill="none" fill-rule="evenodd">
        <g id="Desktop-Landscape-Copy" transform="translate(-481.000000, -134.000000)">
            <g id="Group-4" transform="translate(482.000000, 135.000000)">
                <path d="M25,4 L18.618,4 L16.894,0.553 C16.725,0.214 16.379,0 16,0 L10,0 C9.621,0 9.275,0.214 9.105,0.553 L7.382,4 L1,4 C0.448,4 0,4.448 0,5 C0,5.552 0.448,6 1,6 L21,6 L21,26 L5,26 L5,9 C5,8.448 4.552,8 4,8 C3.448,8 3,8.448 3,9 L3,27 C3,27.553 3.448,28 4,28 L22,28 C22.553,28 23,27.553 23,27 L23,6 L25,6 C25.553,6 26,5.552 26,5 C26,4.448 25.553,4 25,4 Z" id="Path" stroke="#8D8D8D" fill="#FFFFFF"></path>
                <polygon id="Path" stroke="#8D8D8D" fill="#FFFFFF" points="11 2 15.764 2 16.764 4 10 4"></polygon>
                <path d="M11,22 L11,12 C11,11.448 10.552,11 10,11 C9.448,11 9,11.448 9,12 L9,22 C9,22.553 9.448,23 10,23 C10.552,23 11,22.553 11,22 Z" id="Shape" fill="#8D8D8D"></path>
                <path d="M17,22 L17,12 C17,11.448 16.553,11 16,11 C15.447,11 15,11.448 15,12 L15,22 C15,22.553 15.447,23 16,23 C16.553,23 17,22.553 17,22 Z" id="Shape" fill="#8D8D8D"></path>
            </g>
        </g>
    </g>
</svg>