<?xml version="1.0" encoding="UTF-8" standalone="no"?>
<svg width="30px" height="30px" viewBox="0 0 30 30" version="1.1" xmlns="http://www.w3.org/2000/svg" xmlns:xlink="http://www.w3.org/1999/xlink">
    <!-- Generator: Sketch 41.2 (35397) - http://www.bohemiancoding.com/sketch -->
    <title>Group 5</title>
    <desc>Created with Sketch.</desc>
    <defs></defs>
    <g id="Page-1" stroke="none" stroke-width="1" fill="none" fill-rule="evenodd">
        <g id="Desktop-Landscape-Copy" transform="translate(-520.000000, -93.000000)" stroke="#3B3B39">
            <g id="Group-5" transform="translate(521.000000, 94.000000)">
                <path d="M26.172,1.8303844 C25.208,0.866384397 23.986,0.255384397 22.639,0.0633843973 C20.678,-0.214615603 18.744,0.430384397 17.345,1.8303844 C16.954,2.2213844 16.954,2.8543844 17.345,3.2453844 C17.366,3.2663844 17.393,3.2733844 17.415,3.2913844 C17.433,3.3123844 17.44,3.3393844 17.461,3.3603844 L20.345,6.2443844 L5.449,21.1403844 L3.156,18.8473844 L15.793,6.2103844 C16.184,5.8193844 16.184,5.1873844 15.793,4.7963844 C15.402,4.4053844 14.77,4.4053844 14.379,4.7963844 L1.037,18.1383844 C1.036,18.1393844 1.035,18.1393844 1.034,18.1403844 L0.292,18.8823844 C0.198,18.9763844 0.125,19.0883844 0.075,19.2093844 C0.026,19.3313844 0,19.4603844 0,19.5893844 L0,27.0023844 C0,27.5553844 0.448,28.0023844 1,28.0023844 L8.414,28.0023844 C8.679,28.0023844 8.934,27.8973844 9.121,27.7093844 L26.172,10.6583844 C28.605,8.2243844 28.605,4.2643844 26.172,1.8303844 Z" id="Path"></path>
                <path d="M22.809,2.04312836 C23.723,2.17312836 24.553,2.58812836 25.208,3.24312836 C26.617,4.65312836 26.814,6.81012836 25.822,8.44212836 L22.916,5.53512836 L22.916,5.53512836 L22.916,5.53512836 L20,2.61912836 C20.831,2.11012836 21.814,1.90212836 22.809,2.04312836 Z" id="Path"></path>
                <path d="M2,26.482 L2,21 L4.74,23.74 C4.741,23.741 4.741,23.742 4.741,23.742 L4.743,23.743 L7.482,26.482 L2,26.482 Z" id="Path"></path>
                <polygon id="Path" points="7 22.896 21.895 8 24.188 10.293 9.292 25.189"></polygon>
            </g>
        </g>
    </g>
</svg>