<?xml version="1.0" encoding="UTF-8" standalone="no"?>
<svg width="645px" height="155px" viewBox="0 0 645 155" version="1.1" xmlns="http://www.w3.org/2000/svg" xmlns:xlink="http://www.w3.org/1999/xlink">
    <!-- Generator: Sketch 41.2 (35397) - http://www.bohemiancoding.com/sketch -->
    <title>Group 2</title>
    <desc>Created with Sketch.</desc>
    <defs></defs>
    <g id="Page-1" stroke="none" stroke-width="1" fill="none" fill-rule="evenodd">
        <g id="Desktop-Landscape-Copy" transform="translate(-482.000000, -58.000000)">
            <g id="Group-2" transform="translate(482.000000, 58.000000)">
                <polyline id="Shape" stroke="#FFFFFF" stroke-width="2" points="618.528746 130.049044 643.384615 130.049044 643.384615 147.261544 630.000686 147.261544"></polyline>
                <polyline id="Shape" stroke="#FFFFFF" stroke-width="2" points="622.352726 147.261544 618.528746 147.261544 618.528746 133.874044"></polyline>
                <polyline id="Shape" stroke="#FFFFFF" stroke-width="2" points="630.000686 147.2625 622.352726 153 622.352726 147.2625"></polyline>
                <path d="M12.7080411,22.6698188 C12.8906362,22.8524625 13.1353709,22.95 13.3839296,22.95 C13.5072529,22.95 13.6315323,22.92705 13.7500757,22.877325 C14.1066618,22.7300625 14.3399246,22.380075 14.3399246,21.99375 L14.3399246,0.95625 C14.3399246,0.4284 13.9116388,0 13.3839296,0 C12.8562204,0 12.4279346,0.4284 12.4279346,0.95625 L12.4279346,19.6853625 L5.4558633,12.7114313 C5.08206927,12.3375375 4.47788044,12.3375375 4.10408641,12.7114313 C3.73029238,13.085325 3.73029238,13.689675 4.10408641,14.0635688 L12.7080411,22.6698188 Z" id="Shape" fill="#8D8D8D"></path>
                <path d="M17.2079095,19.125 C17.4526442,19.125 17.6973789,19.0312875 17.8837979,18.8448187 L22.6637728,14.0635687 C23.0375668,13.689675 23.0375668,13.0843687 22.6637728,12.7114312 C22.2899787,12.3384937 21.6857899,12.3375375 21.3119959,12.7123875 L16.532021,17.4936375 C16.158227,17.8675312 16.158227,18.4718812 16.532021,18.845775 C16.7184401,19.0312875 16.9631748,19.125 17.2079095,19.125 Z" id="Shape" fill="#8D8D8D"></path>
                <path d="M25.8118642,18.16875 C25.283199,18.16875 24.8558692,18.5961938 24.8558692,19.125 L24.8558692,24.8625 L1.91198994,24.8625 L1.91198994,19.125 C1.91198994,18.5961938 1.48370419,18.16875 0.955994971,18.16875 C0.428285747,18.16875 0,18.5961938 0,19.125 L0,25.81875 C0,26.3475563 0.428285747,26.775 0.955994971,26.775 L25.8118642,26.775 C26.3405294,26.775 26.7678592,26.3475563 26.7678592,25.81875 L26.7678592,19.125 C26.7678592,18.5961938 26.3405294,18.16875 25.8118642,18.16875 Z" id="Shape" fill="#8D8D8D"></path>
            </g>
        </g>
    </g>
</svg>