<?xml version="1.0" encoding="UTF-8" standalone="no"?>
<svg width="645px" height="155px" viewBox="0 0 645 155" version="1.1" xmlns="http://www.w3.org/2000/svg" xmlns:xlink="http://www.w3.org/1999/xlink">
    <!-- Generator: Sketch 41.2 (35397) - http://www.bohemiancoding.com/sketch -->
    <title>Group 3</title>
    <desc>Created with Sketch.</desc>
    <defs></defs>
    <g id="Page-1" stroke="none" stroke-width="1" fill="none" fill-rule="evenodd">
        <g id="Desktop-Landscape-Copy" transform="translate(-525.000000, -58.000000)">
            <g id="Group-3" transform="translate(525.000000, 58.000000)">
                <polyline id="Shape" stroke="#FFFFFF" stroke-width="2" points="619.120357 130.049044 644 130.049044 644 147.261544 630.603269 147.261544"></polyline>
                <polyline id="Shape" stroke="#FFFFFF" stroke-width="2" points="622.947994 147.261544 619.120357 147.261544 619.120357 133.874044"></polyline>
                <polyline id="Shape" stroke="#FFFFFF" stroke-width="2" points="630.603269 147.2625 622.947994 153 622.947994 147.2625"></polyline>
                <path d="M12.7201961,22.6698188 C12.9029658,22.8524625 13.1479346,22.95 13.3967311,22.95 C13.5201724,22.95 13.6445706,22.92705 13.7632273,22.877325 C14.1201545,22.7300625 14.3536404,22.380075 14.3536404,21.99375 L14.3536404,0.95625 C14.3536404,0.4284 13.924945,0 13.3967311,0 C12.8685171,0 12.4398217,0.4284 12.4398217,0.95625 L12.4398217,19.6853625 L5.46108172,12.7114313 C5.08693016,12.3375375 4.48216345,12.3375375 4.10801189,12.7114313 C3.73386033,13.085325 3.73386033,13.689675 4.10801189,14.0635688 L12.7201961,22.6698188 Z" id="Shape" fill="#3B3B39"></path>
                <path d="M17.2243685,19.125 C17.4693373,19.125 17.7143061,19.0312875 17.9009034,18.8448188 L22.6854502,14.0635688 C23.0596018,13.689675 23.0596018,13.0843688 22.6854502,12.7114313 C22.3112987,12.3384938 21.7065319,12.3375375 21.3323804,12.7123875 L16.5478336,17.4936375 C16.173682,17.8675313 16.173682,18.4718813 16.5478336,18.845775 C16.7344309,19.0312875 16.9793997,19.125 17.2243685,19.125 Z" id="Shape" fill="#3B3B39"></path>
                <path d="M25.8365527,18.16875 C25.3073819,18.16875 24.8796434,18.5961938 24.8796434,19.125 L24.8796434,24.8625 L1.91381872,24.8625 L1.91381872,19.125 C1.91381872,18.5961938 1.48512333,18.16875 0.956909361,18.16875 C0.428695394,18.16875 0,18.5961938 0,19.125 L0,25.81875 C0,26.3475563 0.428695394,26.775 0.956909361,26.775 L25.8365527,26.775 C26.3657236,26.775 26.7934621,26.3475563 26.7934621,25.81875 L26.7934621,19.125 C26.7934621,18.5961938 26.3657236,18.16875 25.8365527,18.16875 Z" id="Shape" fill="#3B3B39"></path>
            </g>
        </g>
    </g>
</svg>